<svg viewBox="0 0 32 32" xmlns="http://www.w3.org/2000/svg">
  <path fill="#25d366" d="M16 0C7.164 0 0 7.163 0 16c0 2.823.737 5.496 2.028 7.815L.09 31.91l8.279-2.013A15.867 15.867 0 0016 32c8.836 0 16-7.163 16-16S24.836 0 16 0zm9.055 22.89c-.366 1.034-1.846 1.908-3.03 2.166-1.808.394-4.516.708-13.061-5.582-3.886-3.189-6.307-7.148-6.662-7.479-.574-.608-1.59-1.903-1.59-3.63 0-1.727.915-2.585 1.24-2.946C3.7 5.47 4.642 5 5.48 5c.444 0 .852.022 1.217.04.355.017.875-.14 1.37.865.5 1.018 1.59 3.51 1.73 3.766.14.255.243.558.048.9-.194.34-.29.554-.576.847-.276.283-.466.503-.706.808-.221.284-.472.59-.192 1.154.28.564 1.246 2.046 2.678 3.31 1.846 1.636 3.324 2.14 3.886 2.424.562.284.896.255 1.221-.157.326-.412 1.406-1.604 1.78-2.157.373-.553.747-.472 1.27-.283.522.188 3.319 1.565 3.886 1.85.566.283.94.42 1.08.65.14.23.14 1.335-.225 2.369z"/>
</svg>